# xmcd
#
# Track frame offsets: 
#        150
#        62575
#        91125
#        137110
#        182875
#        212212
#        230492
#        259767
#
# Disc length: 4011 seconds
#
# Revision: 0
# Processed by: cddbd v1.5.2PL0 Copyright (c) Steve Scherf et al.
# Submitted via: ExactAudioCopy v1.0b1
#
DISCID=700fa908
DTITLE=Andrew Mogrelia, Ukranian Chamber Orchestra - Novak: Serenades
DYEAR=1994
DGENRE=Classical
TTITLE0=Serenade, F Major, small orchestra   Allegro non troppo 
TTITLE1=Serenade, F Major, small orchestra   Allegretto
TTITLE2=Serenade, F Major, small orchestra   Andante tranquillo - Alle
TTITLE2=gretto grazioso - Tempo I
TTITLE3=Serenade, F Major, small orchestra   Lento - Allegro vivace - 
TTITLE3=Tempo del Allegro - Allegro vivace - Molto tranquillo 
TTITLE4=Serenade, D Major, small orchestra   Praeludium: Andante tranq
TTITLE4=uillo  Op. 36
TTITLE5=Serenade, D Major, small orchestra   Serenata: Allegro giusto 
TTITLE5=Op. 36
TTITLE6=Serenade, D Major, small orchestra   Notturno: Lento amoroso  
TTITLE6=Op. 36
TTITLE7=Serenade, D Major, small orchestra   Finale: Allegro capriccio
TTITLE7=so  Op. 36
EXTD=
EXTT0=
EXTT1=
EXTT2=
EXTT3=
EXTT4=
EXTT5=
EXTT6=
EXTT7=
PLAYORDER=
